<?xml version="1.0" encoding="utf-8"?>
<!-- Generator: Adobe Illustrator 17.0.0, SVG Export Plug-In . SVG Version: 6.00 Build 0)  -->
<!DOCTYPE svg PUBLIC "-//W3C//DTD SVG 1.1//EN" "http://www.w3.org/Graphics/SVG/1.1/DTD/svg11.dtd">
<svg version="1.1" id="Layer_1" xmlns="http://www.w3.org/2000/svg" xmlns:xlink="http://www.w3.org/1999/xlink" x="0px" y="0px"
	 width="106.972px" height="100px" viewBox="-3.487 4.331 106.972 100" enable-background="new -3.487 4.331 106.972 100"
	 xml:space="preserve">
<g id="Layer_2">
</g>
<g id="Layer_1_1_" opacity="0.2">
	<g>
		<g>
			<path fill="#3B545C" d="M50,24.331c-17.696,0-32.092,14.397-32.092,32.092c0,3.219,0.485,5.53,1.483,7.067
				c1.033,1.593,2.689,2.436,4.785,2.436c2.508,0,5.578-1.138,9.143-2.458c4.684-1.733,10.515-3.893,16.601-3.893
				c6.078,0,11.93,2.155,16.637,3.888c3.588,1.321,6.688,2.463,9.22,2.463c6.314,0,6.314-7.153,6.314-9.503
				C82.093,38.726,67.696,24.331,50,24.331z M49.922,57.985c-16.847,0-30.424,15.284-30.424-1.563S33.153,25.918,50,25.918
				s30.504,13.657,30.504,30.504S66.769,57.985,49.922,57.985z"/>
			<path fill="#3B545C" d="M49.925,57.259c-10.318,0-22.007,3.163-26.56,4.525C25.493,74.576,36.605,84.331,50,84.331
				c13.297,0,24.342-9.612,26.585-22.264C71.892,60.628,59.846,57.259,49.925,57.259z"/>
			<g>
				<path fill="#3B545C" d="M60.657,43.546c-0.351,0-0.7-0.159-0.927-0.462c-2.314-3.07-5.836-4.832-9.663-4.832
					c-3.825,0-7.349,1.76-9.663,4.832c-0.385,0.512-1.115,0.615-1.627,0.228c-0.512-0.387-0.615-1.115-0.228-1.627
					c2.757-3.657,6.954-5.756,11.518-5.756s8.761,2.099,11.52,5.756c0.387,0.512,0.284,1.24-0.229,1.627
					C61.146,43.469,60.902,43.546,60.657,43.546z"/>
				<path fill="#3B545C" d="M42.633,46.083c-0.237,0-0.478-0.072-0.685-0.223c-0.518-0.379-0.631-1.106-0.25-1.624
					c1.954-2.67,5.083-4.265,8.368-4.265s6.414,1.593,8.368,4.265c0.379,0.518,0.268,1.245-0.25,1.622
					c-0.518,0.379-1.245,0.266-1.624-0.25c-1.518-2.073-3.947-3.314-6.494-3.314s-4.974,1.239-6.492,3.314
					C43.344,45.92,42.991,46.083,42.633,46.083z"/>
				<path fill="#3B545C" d="M54.35,48.609c-0.372,0-0.738-0.178-0.963-0.51c-0.748-1.104-1.99-1.763-3.323-1.763
					c-1.33,0-2.574,0.658-3.322,1.763c-0.359,0.531-1.082,0.671-1.613,0.31c-0.531-0.359-0.669-1.082-0.31-1.613
					c1.181-1.743,3.142-2.782,5.244-2.782c2.104,0,4.065,1.04,5.246,2.782c0.359,0.531,0.221,1.253-0.31,1.613
					C54.801,48.545,54.575,48.609,54.35,48.609z"/>
			</g>
		</g>
	</g>
</g>
</svg>
